<svg width="541" height="626" viewBox="0 0 541 626" fill="none" xmlns="http://www.w3.org/2000/svg">
	<path
		d="M332.285 546.097V542.551L344.626 537.369V541.247L336.478 544.29L336.606 544.102V544.554L336.478 544.358L344.626 547.409V551.278L332.285 546.097ZM351.796 553H347.262L353.151 535.545H358.767L364.657 553H360.123L356.023 539.943H355.887L351.796 553ZM351.191 546.131H360.668V549.335H351.191V546.131ZM370.497 553.188C369.531 553.188 368.653 552.938 367.863 552.438C367.074 551.938 366.443 551.188 365.971 550.188C365.5 549.188 365.264 547.946 365.264 546.463C365.264 544.923 365.508 543.656 365.997 542.662C366.485 541.668 367.125 540.932 367.914 540.455C368.71 539.977 369.565 539.739 370.48 539.739C371.167 539.739 371.755 539.858 372.244 540.097C372.733 540.33 373.136 540.631 373.454 541C373.772 541.369 374.014 541.753 374.179 542.151H374.264V535.545H378.431V553H374.306V550.878H374.179C374.002 551.281 373.752 551.659 373.429 552.011C373.105 552.364 372.699 552.648 372.21 552.864C371.727 553.08 371.156 553.188 370.497 553.188ZM371.946 549.94C372.451 549.94 372.883 549.798 373.241 549.514C373.599 549.224 373.875 548.818 374.068 548.295C374.261 547.773 374.358 547.159 374.358 546.455C374.358 545.739 374.261 545.122 374.068 544.605C373.88 544.088 373.605 543.69 373.241 543.412C372.883 543.134 372.451 542.994 371.946 542.994C371.429 542.994 370.991 543.136 370.633 543.42C370.275 543.705 370.002 544.105 369.815 544.622C369.633 545.139 369.542 545.75 369.542 546.455C369.542 547.159 369.636 547.773 369.824 548.295C370.011 548.818 370.281 549.224 370.633 549.514C370.991 549.798 371.429 549.94 371.946 549.94ZM385.848 553.188C384.882 553.188 384.005 552.938 383.215 552.438C382.425 551.938 381.794 551.188 381.323 550.188C380.851 549.188 380.615 547.946 380.615 546.463C380.615 544.923 380.86 543.656 381.348 542.662C381.837 541.668 382.476 540.932 383.266 540.455C384.061 539.977 384.917 539.739 385.831 539.739C386.519 539.739 387.107 539.858 387.596 540.097C388.084 540.33 388.488 540.631 388.806 541C389.124 541.369 389.365 541.753 389.53 542.151H389.615V535.545H393.783V553H389.658V550.878H389.53C389.354 551.281 389.104 551.659 388.78 552.011C388.456 552.364 388.05 552.648 387.561 552.864C387.078 553.08 386.507 553.188 385.848 553.188ZM387.297 549.94C387.803 549.94 388.235 549.798 388.593 549.514C388.951 549.224 389.226 548.818 389.419 548.295C389.613 547.773 389.709 547.159 389.709 546.455C389.709 545.739 389.613 545.122 389.419 544.605C389.232 544.088 388.956 543.69 388.593 543.412C388.235 543.134 387.803 542.994 387.297 542.994C386.78 542.994 386.343 543.136 385.985 543.42C385.627 543.705 385.354 544.105 385.167 544.622C384.985 545.139 384.894 545.75 384.894 546.455C384.894 547.159 384.988 547.773 385.175 548.295C385.363 548.818 385.632 549.224 385.985 549.514C386.343 549.798 386.78 549.94 387.297 549.94ZM395.848 538.972V535.545H410.6V538.972H405.308V553H401.149V538.972H395.848ZM416.873 553.247C415.498 553.247 414.316 552.966 413.328 552.403C412.345 551.835 411.586 551.045 411.052 550.034C410.524 549.017 410.26 547.838 410.26 546.497C410.26 545.151 410.524 543.972 411.052 542.96C411.586 541.943 412.345 541.153 413.328 540.591C414.316 540.023 415.498 539.739 416.873 539.739C418.248 539.739 419.427 540.023 420.41 540.591C421.399 541.153 422.157 541.943 422.686 542.96C423.22 543.972 423.487 545.151 423.487 546.497C423.487 547.838 423.22 549.017 422.686 550.034C422.157 551.045 421.399 551.835 420.41 552.403C419.427 552.966 418.248 553.247 416.873 553.247ZM416.899 550.102C417.399 550.102 417.822 549.949 418.169 549.642C418.515 549.335 418.779 548.909 418.961 548.364C419.149 547.818 419.243 547.187 419.243 546.472C419.243 545.744 419.149 545.108 418.961 544.562C418.779 544.017 418.515 543.591 418.169 543.284C417.822 542.977 417.399 542.824 416.899 542.824C416.382 542.824 415.944 542.977 415.586 543.284C415.234 543.591 414.964 544.017 414.777 544.562C414.595 545.108 414.504 545.744 414.504 546.472C414.504 547.187 414.595 547.818 414.777 548.364C414.964 548.909 415.234 549.335 415.586 549.642C415.944 549.949 416.382 550.102 416.899 550.102ZM430.403 553.188C429.437 553.188 428.559 552.938 427.77 552.438C426.98 551.938 426.349 551.188 425.877 550.188C425.406 549.188 425.17 547.946 425.17 546.463C425.17 544.923 425.414 543.656 425.903 542.662C426.392 541.668 427.031 540.932 427.821 540.455C428.616 539.977 429.471 539.739 430.386 539.739C431.074 539.739 431.662 539.858 432.15 540.097C432.639 540.33 433.042 540.631 433.36 541C433.679 541.369 433.92 541.753 434.085 542.151H434.17V535.545H438.338V553H434.213V550.878H434.085C433.909 551.281 433.659 551.659 433.335 552.011C433.011 552.364 432.605 552.648 432.116 552.864C431.633 553.08 431.062 553.188 430.403 553.188ZM431.852 549.94C432.358 549.94 432.789 549.798 433.147 549.514C433.505 549.224 433.781 548.818 433.974 548.295C434.167 547.773 434.264 547.159 434.264 546.455C434.264 545.739 434.167 545.122 433.974 544.605C433.787 544.088 433.511 543.69 433.147 543.412C432.789 543.134 432.358 542.994 431.852 542.994C431.335 542.994 430.897 543.136 430.539 543.42C430.181 543.705 429.909 544.105 429.721 544.622C429.539 545.139 429.449 545.75 429.449 546.455C429.449 547.159 429.542 547.773 429.73 548.295C429.917 548.818 430.187 549.224 430.539 549.514C430.897 549.798 431.335 549.94 431.852 549.94ZM447.084 553.247C445.709 553.247 444.527 552.966 443.539 552.403C442.556 551.835 441.797 551.045 441.263 550.034C440.735 549.017 440.471 547.838 440.471 546.497C440.471 545.151 440.735 543.972 441.263 542.96C441.797 541.943 442.556 541.153 443.539 540.591C444.527 540.023 445.709 539.739 447.084 539.739C448.459 539.739 449.638 540.023 450.621 540.591C451.61 541.153 452.368 541.943 452.897 542.96C453.431 543.972 453.698 545.151 453.698 546.497C453.698 547.838 453.431 549.017 452.897 550.034C452.368 551.045 451.61 551.835 450.621 552.403C449.638 552.966 448.459 553.247 447.084 553.247ZM447.11 550.102C447.61 550.102 448.033 549.949 448.38 549.642C448.726 549.335 448.99 548.909 449.172 548.364C449.36 547.818 449.453 547.187 449.453 546.472C449.453 545.744 449.36 545.108 449.172 544.562C448.99 544.017 448.726 543.591 448.38 543.284C448.033 542.977 447.61 542.824 447.11 542.824C446.593 542.824 446.155 542.977 445.797 543.284C445.445 543.591 445.175 544.017 444.988 544.562C444.806 545.108 444.715 545.744 444.715 546.472C444.715 547.187 444.806 547.818 444.988 548.364C445.175 548.909 445.445 549.335 445.797 549.642C446.155 549.949 446.593 550.102 447.11 550.102ZM469.069 534.727L463.444 555.625H459.89L465.515 534.727H469.069ZM483.704 547.733L471.363 552.915V549.045L479.511 545.994L479.392 546.19V545.739L479.511 545.926L471.363 542.884V539.006L483.704 544.188V547.733Z"
		fill="#CE954A"/>
	<rect x="299.5" y="510.5" width="216" height="66" rx="13.5" stroke="#CE954A" stroke-width="3"/>
	<rect x="62.5" y="512.833" width="168" height="66.3333" rx="13.5" stroke="#CE954A" stroke-width="3"/>
	<rect x="68.5" y="507.5" width="168" height="66.3333" rx="13.5" stroke="#CE954A" stroke-width="3"/>
	<rect x="56.5" y="518.167" width="168" height="66.3333" rx="13.5" fill="white" stroke="#CE954A" stroke-width="3"/>
	<path
		d="M89.9844 553.097V549.551L102.325 544.369V548.247L94.1776 551.29L94.3054 551.102V551.554L94.1776 551.358L102.325 554.409V558.278L89.9844 553.097ZM105.148 545.972V542.545H119.901V545.972H114.609V560H110.45V545.972H105.148ZM126.174 560.247C124.799 560.247 123.617 559.966 122.629 559.403C121.646 558.835 120.887 558.045 120.353 557.034C119.825 556.017 119.56 554.838 119.56 553.497C119.56 552.151 119.825 550.972 120.353 549.96C120.887 548.943 121.646 548.153 122.629 547.591C123.617 547.023 124.799 546.739 126.174 546.739C127.549 546.739 128.728 547.023 129.711 547.591C130.7 548.153 131.458 548.943 131.987 549.96C132.521 550.972 132.788 552.151 132.788 553.497C132.788 554.838 132.521 556.017 131.987 557.034C131.458 558.045 130.7 558.835 129.711 559.403C128.728 559.966 127.549 560.247 126.174 560.247ZM126.2 557.102C126.7 557.102 127.123 556.949 127.469 556.642C127.816 556.335 128.08 555.909 128.262 555.364C128.45 554.818 128.543 554.187 128.543 553.472C128.543 552.744 128.45 552.108 128.262 551.562C128.08 551.017 127.816 550.591 127.469 550.284C127.123 549.977 126.7 549.824 126.2 549.824C125.683 549.824 125.245 549.977 124.887 550.284C124.535 550.591 124.265 551.017 124.077 551.562C123.896 552.108 123.805 552.744 123.805 553.472C123.805 554.187 123.896 554.818 124.077 555.364C124.265 555.909 124.535 556.335 124.887 556.642C125.245 556.949 125.683 557.102 126.2 557.102ZM139.704 560.188C138.738 560.188 137.86 559.938 137.07 559.438C136.281 558.938 135.65 558.188 135.178 557.188C134.707 556.188 134.471 554.946 134.471 553.463C134.471 551.923 134.715 550.656 135.204 549.662C135.692 548.668 136.332 547.932 137.121 547.455C137.917 546.977 138.772 546.739 139.687 546.739C140.374 546.739 140.962 546.858 141.451 547.097C141.94 547.33 142.343 547.631 142.661 548C142.979 548.369 143.221 548.753 143.386 549.151H143.471V542.545H147.638V560H143.513V557.878H143.386C143.21 558.281 142.96 558.659 142.636 559.011C142.312 559.364 141.906 559.648 141.417 559.864C140.934 560.08 140.363 560.188 139.704 560.188ZM141.153 556.94C141.658 556.94 142.09 556.798 142.448 556.514C142.806 556.224 143.082 555.818 143.275 555.295C143.468 554.773 143.565 554.159 143.565 553.455C143.565 552.739 143.468 552.122 143.275 551.605C143.087 551.088 142.812 550.69 142.448 550.412C142.09 550.134 141.658 549.994 141.153 549.994C140.636 549.994 140.198 550.136 139.84 550.42C139.482 550.705 139.21 551.105 139.022 551.622C138.84 552.139 138.749 552.75 138.749 553.455C138.749 554.159 138.843 554.773 139.031 555.295C139.218 555.818 139.488 556.224 139.84 556.514C140.198 556.798 140.636 556.94 141.153 556.94ZM156.385 560.247C155.01 560.247 153.828 559.966 152.839 559.403C151.857 558.835 151.098 558.045 150.564 557.034C150.036 556.017 149.771 554.838 149.771 553.497C149.771 552.151 150.036 550.972 150.564 549.96C151.098 548.943 151.857 548.153 152.839 547.591C153.828 547.023 155.01 546.739 156.385 546.739C157.76 546.739 158.939 547.023 159.922 547.591C160.911 548.153 161.669 548.943 162.197 549.96C162.732 550.972 162.999 552.151 162.999 553.497C162.999 554.838 162.732 556.017 162.197 557.034C161.669 558.045 160.911 558.835 159.922 559.403C158.939 559.966 157.76 560.247 156.385 560.247ZM156.411 557.102C156.911 557.102 157.334 556.949 157.68 556.642C158.027 556.335 158.291 555.909 158.473 555.364C158.661 554.818 158.754 554.187 158.754 553.472C158.754 552.744 158.661 552.108 158.473 551.562C158.291 551.017 158.027 550.591 157.68 550.284C157.334 549.977 156.911 549.824 156.411 549.824C155.893 549.824 155.456 549.977 155.098 550.284C154.746 550.591 154.476 551.017 154.288 551.562C154.107 552.108 154.016 552.744 154.016 553.472C154.016 554.187 154.107 554.818 154.288 555.364C154.476 555.909 154.746 556.335 155.098 556.642C155.456 556.949 155.893 557.102 156.411 557.102ZM178.369 541.727L172.744 562.625H169.19L174.815 541.727H178.369ZM193.005 554.733L180.664 559.915V556.045L188.812 552.994L188.692 553.19V552.739L188.812 552.926L180.664 549.884V546.006L193.005 551.188V554.733Z"
		fill="#CE954A"/>
	<rect x="1.5" y="457.5" width="538" height="167" rx="13.5" stroke="#B7595B" stroke-width="3"/>
	<rect x="1.5" y="205.5" width="538" height="114" rx="13.5" stroke="#2269D5" stroke-width="3"/>
	<rect x="23.5" y="481.5" width="255" height="125" rx="13.5" stroke="#B7595B" stroke-width="3"/>
	<path
		d="M75.4283 260.909V263.977H67.0079V260.909H75.4283ZM68.7636 274V260.244C68.7636 259.233 68.9539 258.395 69.3346 257.73C69.7153 257.06 70.2437 256.56 70.9198 256.23C71.596 255.895 72.3772 255.727 73.2636 255.727C73.8431 255.727 74.3886 255.773 74.8999 255.864C75.417 255.949 75.8005 256.026 76.0505 256.094L75.3857 259.145C75.2323 259.094 75.0448 259.051 74.8232 259.017C74.6073 258.983 74.4028 258.966 74.2096 258.966C73.721 258.966 73.3857 259.074 73.2039 259.29C73.0221 259.506 72.9312 259.801 72.9312 260.176V274H68.7636ZM77.4333 274V260.909H81.6009V274H77.4333ZM79.5214 259.384C78.9361 259.384 78.4333 259.19 78.0129 258.804C77.5924 258.412 77.3822 257.94 77.3822 257.389C77.3822 256.844 77.5924 256.378 78.0129 255.991C78.4333 255.599 78.9361 255.403 79.5214 255.403C80.1123 255.403 80.6151 255.599 81.0299 255.991C81.4504 256.378 81.6606 256.844 81.6606 257.389C81.6606 257.94 81.4504 258.412 81.0299 258.804C80.6151 259.19 80.1123 259.384 79.5214 259.384ZM88.4212 256.545V274H84.2536V256.545H88.4212ZM98.4631 260.909V263.977H90.2046V260.909H98.4631ZM91.9347 257.773H96.1023V269.884C96.1023 270.139 96.1421 270.347 96.2217 270.506C96.3069 270.659 96.429 270.77 96.5881 270.838C96.7472 270.901 96.9376 270.932 97.1592 270.932C97.3183 270.932 97.4859 270.918 97.662 270.889C97.8438 270.855 97.9802 270.827 98.0711 270.804L98.7018 273.812C98.5029 273.869 98.2217 273.94 97.858 274.026C97.5001 274.111 97.0711 274.165 96.5711 274.188C95.5938 274.233 94.7558 274.119 94.0569 273.847C93.3637 273.568 92.8325 273.136 92.4631 272.551C92.0995 271.966 91.9234 271.23 91.9347 270.344V257.773ZM106.568 274.247C105.199 274.247 104.017 273.977 103.023 273.438C102.034 272.892 101.273 272.116 100.739 271.111C100.21 270.099 99.9461 268.898 99.9461 267.506C99.9461 266.153 100.213 264.972 100.747 263.96C101.281 262.943 102.034 262.153 103.006 261.591C103.977 261.023 105.122 260.739 106.44 260.739C107.372 260.739 108.225 260.884 108.997 261.173C109.77 261.463 110.438 261.892 111 262.46C111.563 263.028 112 263.73 112.313 264.565C112.625 265.395 112.781 266.347 112.781 267.42V268.46H101.403V266.04H108.903C108.898 265.597 108.793 265.202 108.588 264.855C108.384 264.509 108.102 264.239 107.744 264.045C107.392 263.847 106.986 263.747 106.526 263.747C106.06 263.747 105.642 263.852 105.273 264.062C104.903 264.267 104.611 264.548 104.395 264.906C104.179 265.259 104.065 265.659 104.054 266.108V268.571C104.054 269.105 104.159 269.574 104.369 269.977C104.58 270.375 104.878 270.685 105.264 270.906C105.651 271.128 106.111 271.239 106.645 271.239C107.014 271.239 107.35 271.187 107.651 271.085C107.952 270.983 108.21 270.832 108.426 270.634C108.642 270.435 108.804 270.19 108.912 269.901L112.739 270.011C112.58 270.869 112.23 271.616 111.69 272.253C111.156 272.884 110.455 273.375 109.585 273.727C108.716 274.074 107.71 274.247 106.568 274.247ZM114.91 274V260.909H118.958V263.295H119.095C119.333 262.432 119.722 261.79 120.262 261.369C120.802 260.943 121.43 260.73 122.146 260.73C122.339 260.73 122.538 260.744 122.742 260.773C122.947 260.795 123.137 260.832 123.313 260.884V264.506C123.114 264.437 122.853 264.384 122.529 264.344C122.211 264.304 121.927 264.284 121.677 264.284C121.183 264.284 120.737 264.395 120.339 264.616C119.947 264.832 119.637 265.136 119.41 265.528C119.188 265.915 119.077 266.369 119.077 266.892V274H114.91ZM130.451 274.247C129.082 274.247 127.9 273.977 126.906 273.438C125.917 272.892 125.156 272.116 124.622 271.111C124.093 270.099 123.829 268.898 123.829 267.506C123.829 266.153 124.096 264.972 124.63 263.96C125.164 262.943 125.917 262.153 126.889 261.591C127.86 261.023 129.005 260.739 130.323 260.739C131.255 260.739 132.107 260.884 132.88 261.173C133.653 261.463 134.32 261.892 134.883 262.46C135.445 263.028 135.883 263.73 136.195 264.565C136.508 265.395 136.664 266.347 136.664 267.42V268.46H125.286V266.04H132.786C132.781 265.597 132.675 265.202 132.471 264.855C132.266 264.509 131.985 264.239 131.627 264.045C131.275 263.847 130.869 263.747 130.408 263.747C129.943 263.747 129.525 263.852 129.156 264.062C128.786 264.267 128.494 264.548 128.278 264.906C128.062 265.259 127.948 265.659 127.937 266.108V268.571C127.937 269.105 128.042 269.574 128.252 269.977C128.462 270.375 128.761 270.685 129.147 270.906C129.533 271.128 129.994 271.239 130.528 271.239C130.897 271.239 131.232 271.187 131.533 271.085C131.835 270.983 132.093 270.832 132.309 270.634C132.525 270.435 132.687 270.19 132.795 269.901L136.622 270.011C136.462 270.869 136.113 271.616 135.573 272.253C135.039 272.884 134.337 273.375 133.468 273.727C132.599 274.074 131.593 274.247 130.451 274.247ZM143.574 274.188C142.608 274.188 141.73 273.938 140.94 273.438C140.151 272.938 139.52 272.188 139.048 271.188C138.577 270.188 138.341 268.946 138.341 267.463C138.341 265.923 138.585 264.656 139.074 263.662C139.563 262.668 140.202 261.932 140.992 261.455C141.787 260.977 142.642 260.739 143.557 260.739C144.244 260.739 144.832 260.858 145.321 261.097C145.81 261.33 146.213 261.631 146.531 262C146.85 262.369 147.091 262.753 147.256 263.151H147.341V256.545H151.509V274H147.384V271.878H147.256C147.08 272.281 146.83 272.659 146.506 273.011C146.182 273.364 145.776 273.648 145.287 273.864C144.804 274.08 144.233 274.188 143.574 274.188ZM145.023 270.94C145.528 270.94 145.96 270.798 146.318 270.514C146.676 270.224 146.952 269.818 147.145 269.295C147.338 268.773 147.435 268.159 147.435 267.455C147.435 266.739 147.338 266.122 147.145 265.605C146.957 265.088 146.682 264.69 146.318 264.412C145.96 264.134 145.528 263.994 145.023 263.994C144.506 263.994 144.068 264.136 143.71 264.42C143.352 264.705 143.08 265.105 142.892 265.622C142.71 266.139 142.619 266.75 142.619 267.455C142.619 268.159 142.713 268.773 142.901 269.295C143.088 269.818 143.358 270.224 143.71 270.514C144.068 270.798 144.506 270.94 145.023 270.94Z"
		fill="#3B3B3B"/>
	<rect x="23.5" y="229.5" width="173" height="71" rx="13.5" stroke="#3B3B3B" stroke-width="3"/>
	<path
		d="M292.048 266.534V274H287.88V256.545H291.911V263.312H292.056C292.351 262.506 292.834 261.875 293.505 261.42C294.181 260.966 295.008 260.739 295.985 260.739C296.905 260.739 297.707 260.943 298.388 261.352C299.07 261.756 299.599 262.327 299.974 263.065C300.354 263.804 300.542 264.668 300.536 265.656V274H296.369V266.474C296.374 265.747 296.192 265.179 295.823 264.77C295.454 264.361 294.934 264.156 294.263 264.156C293.826 264.156 293.44 264.253 293.104 264.446C292.775 264.634 292.516 264.903 292.329 265.256C292.147 265.608 292.053 266.034 292.048 266.534ZM306.828 274.222C305.993 274.222 305.251 274.082 304.604 273.804C303.962 273.52 303.453 273.094 303.078 272.526C302.709 271.952 302.524 271.233 302.524 270.369C302.524 269.642 302.652 269.028 302.908 268.528C303.163 268.028 303.516 267.622 303.964 267.31C304.413 266.997 304.93 266.761 305.516 266.602C306.101 266.437 306.726 266.327 307.391 266.27C308.135 266.202 308.734 266.131 309.189 266.057C309.643 265.977 309.973 265.866 310.177 265.724C310.388 265.577 310.493 265.369 310.493 265.102V265.06C310.493 264.622 310.342 264.284 310.041 264.045C309.74 263.807 309.334 263.688 308.822 263.688C308.271 263.688 307.828 263.807 307.493 264.045C307.158 264.284 306.945 264.614 306.854 265.034L303.01 264.898C303.123 264.102 303.416 263.392 303.888 262.767C304.365 262.136 305.018 261.642 305.848 261.284C306.683 260.92 307.686 260.739 308.856 260.739C309.692 260.739 310.462 260.838 311.166 261.037C311.871 261.23 312.484 261.514 313.007 261.889C313.53 262.259 313.933 262.713 314.217 263.253C314.507 263.793 314.652 264.409 314.652 265.102V274H310.731V272.176H310.629C310.396 272.619 310.098 272.994 309.734 273.301C309.376 273.608 308.953 273.838 308.464 273.991C307.981 274.145 307.436 274.222 306.828 274.222ZM308.115 271.494C308.564 271.494 308.967 271.403 309.325 271.222C309.689 271.04 309.979 270.79 310.195 270.472C310.41 270.148 310.518 269.773 310.518 269.347V268.102C310.399 268.165 310.254 268.222 310.084 268.273C309.919 268.324 309.737 268.372 309.538 268.418C309.339 268.463 309.135 268.503 308.925 268.537C308.714 268.571 308.513 268.602 308.32 268.631C307.927 268.693 307.592 268.79 307.314 268.92C307.041 269.051 306.831 269.222 306.683 269.432C306.541 269.636 306.47 269.881 306.47 270.165C306.47 270.597 306.623 270.926 306.93 271.153C307.243 271.381 307.638 271.494 308.115 271.494ZM321.368 266.534V274H317.2V260.909H321.163V263.312H321.308C321.598 262.511 322.092 261.884 322.791 261.429C323.49 260.969 324.322 260.739 325.288 260.739C326.209 260.739 327.007 260.946 327.683 261.361C328.365 261.77 328.893 262.344 329.268 263.082C329.649 263.815 329.837 264.673 329.831 265.656V274H325.663V266.474C325.669 265.747 325.484 265.179 325.109 264.77C324.74 264.361 324.226 264.156 323.567 264.156C323.129 264.156 322.743 264.253 322.408 264.446C322.078 264.634 321.822 264.903 321.641 265.256C321.464 265.608 321.373 266.034 321.368 266.534ZM337.192 274.188C336.226 274.188 335.349 273.938 334.559 273.438C333.769 272.938 333.138 272.188 332.667 271.188C332.195 270.188 331.959 268.946 331.959 267.463C331.959 265.923 332.204 264.656 332.692 263.662C333.181 262.668 333.82 261.932 334.61 261.455C335.405 260.977 336.261 260.739 337.175 260.739C337.863 260.739 338.451 260.858 338.94 261.097C339.428 261.33 339.832 261.631 340.15 262C340.468 262.369 340.709 262.753 340.874 263.151H340.959V256.545H345.127V274H341.002V271.878H340.874C340.698 272.281 340.448 272.659 340.124 273.011C339.8 273.364 339.394 273.648 338.905 273.864C338.423 274.08 337.851 274.188 337.192 274.188ZM338.641 270.94C339.147 270.94 339.579 270.798 339.937 270.514C340.295 270.224 340.57 269.818 340.763 269.295C340.957 268.773 341.053 268.159 341.053 267.455C341.053 266.739 340.957 266.122 340.763 265.605C340.576 265.088 340.3 264.69 339.937 264.412C339.579 264.134 339.147 263.994 338.641 263.994C338.124 263.994 337.687 264.136 337.329 264.42C336.971 264.705 336.698 265.105 336.511 265.622C336.329 266.139 336.238 266.75 336.238 267.455C336.238 268.159 336.332 268.773 336.519 269.295C336.707 269.818 336.976 270.224 337.329 270.514C337.687 270.798 338.124 270.94 338.641 270.94ZM351.93 256.545V274H347.763V256.545H351.93ZM360.702 274.247C359.333 274.247 358.151 273.977 357.157 273.438C356.168 272.892 355.407 272.116 354.873 271.111C354.344 270.099 354.08 268.898 354.08 267.506C354.08 266.153 354.347 264.972 354.881 263.96C355.415 262.943 356.168 262.153 357.14 261.591C358.111 261.023 359.256 260.739 360.574 260.739C361.506 260.739 362.359 260.884 363.131 261.173C363.904 261.463 364.572 261.892 365.134 262.46C365.697 263.028 366.134 263.73 366.447 264.565C366.759 265.395 366.915 266.347 366.915 267.42V268.46H355.538V266.04H363.038C363.032 265.597 362.927 265.202 362.722 264.855C362.518 264.509 362.236 264.239 361.878 264.045C361.526 263.847 361.12 263.747 360.66 263.747C360.194 263.747 359.776 263.852 359.407 264.062C359.038 264.267 358.745 264.548 358.529 264.906C358.313 265.259 358.199 265.659 358.188 266.108V268.571C358.188 269.105 358.293 269.574 358.503 269.977C358.714 270.375 359.012 270.685 359.398 270.906C359.785 271.128 360.245 271.239 360.779 271.239C361.148 271.239 361.484 271.187 361.785 271.085C362.086 270.983 362.344 270.832 362.56 270.634C362.776 270.435 362.938 270.19 363.046 269.901L366.873 270.011C366.714 270.869 366.364 271.616 365.824 272.253C365.29 272.884 364.589 273.375 363.719 273.727C362.85 274.074 361.844 274.247 360.702 274.247ZM384.888 262.869H380.626C380.57 262.432 380.453 262.037 380.277 261.685C380.101 261.332 379.868 261.031 379.578 260.781C379.288 260.531 378.945 260.341 378.547 260.21C378.155 260.074 377.72 260.006 377.243 260.006C376.396 260.006 375.666 260.213 375.052 260.628C374.445 261.043 373.976 261.642 373.646 262.426C373.322 263.21 373.16 264.159 373.16 265.273C373.16 266.432 373.325 267.403 373.655 268.188C373.99 268.966 374.459 269.554 375.061 269.952C375.669 270.344 376.388 270.54 377.217 270.54C377.683 270.54 378.106 270.48 378.487 270.361C378.873 270.241 379.212 270.068 379.501 269.841C379.797 269.608 380.038 269.327 380.226 268.997C380.419 268.662 380.552 268.284 380.626 267.864L384.888 267.889C384.814 268.662 384.589 269.423 384.214 270.173C383.845 270.923 383.337 271.608 382.689 272.227C382.041 272.841 381.251 273.33 380.32 273.693C379.393 274.057 378.331 274.239 377.132 274.239C375.552 274.239 374.138 273.892 372.888 273.199C371.643 272.5 370.66 271.483 369.939 270.148C369.217 268.812 368.856 267.187 368.856 265.273C368.856 263.352 369.223 261.724 369.956 260.389C370.689 259.054 371.68 258.04 372.93 257.347C374.18 256.653 375.581 256.307 377.132 256.307C378.189 256.307 379.166 256.455 380.064 256.75C380.962 257.04 381.751 257.466 382.433 258.028C383.115 258.585 383.669 259.27 384.095 260.082C384.521 260.895 384.785 261.824 384.888 262.869ZM391.469 266.534V274H387.302V256.545H391.333V263.312H391.478C391.773 262.506 392.256 261.875 392.927 261.42C393.603 260.966 394.43 260.739 395.407 260.739C396.327 260.739 397.128 260.943 397.81 261.352C398.492 261.756 399.021 262.327 399.396 263.065C399.776 263.804 399.964 264.668 399.958 265.656V274H395.79V266.474C395.796 265.747 395.614 265.179 395.245 264.77C394.876 264.361 394.356 264.156 393.685 264.156C393.248 264.156 392.861 264.253 392.526 264.446C392.197 264.634 391.938 264.903 391.751 265.256C391.569 265.608 391.475 266.034 391.469 266.534ZM406.25 274.222C405.415 274.222 404.673 274.082 404.025 273.804C403.383 273.52 402.875 273.094 402.5 272.526C402.131 271.952 401.946 271.233 401.946 270.369C401.946 269.642 402.074 269.028 402.329 268.528C402.585 268.028 402.937 267.622 403.386 267.31C403.835 266.997 404.352 266.761 404.937 266.602C405.523 266.437 406.148 266.327 406.812 266.27C407.557 266.202 408.156 266.131 408.611 266.057C409.065 265.977 409.395 265.866 409.599 265.724C409.81 265.577 409.915 265.369 409.915 265.102V265.06C409.915 264.622 409.764 264.284 409.463 264.045C409.162 263.807 408.756 263.688 408.244 263.688C407.693 263.688 407.25 263.807 406.915 264.045C406.579 264.284 406.366 264.614 406.275 265.034L402.432 264.898C402.545 264.102 402.838 263.392 403.31 262.767C403.787 262.136 404.44 261.642 405.27 261.284C406.105 260.92 407.108 260.739 408.278 260.739C409.114 260.739 409.883 260.838 410.588 261.037C411.293 261.23 411.906 261.514 412.429 261.889C412.952 262.259 413.355 262.713 413.639 263.253C413.929 263.793 414.074 264.409 414.074 265.102V274H410.153V272.176H410.051C409.818 272.619 409.52 272.994 409.156 273.301C408.798 273.608 408.375 273.838 407.886 273.991C407.403 274.145 406.858 274.222 406.25 274.222ZM407.537 271.494C407.986 271.494 408.389 271.403 408.747 271.222C409.111 271.04 409.4 270.79 409.616 270.472C409.832 270.148 409.94 269.773 409.94 269.347V268.102C409.821 268.165 409.676 268.222 409.506 268.273C409.341 268.324 409.159 268.372 408.96 268.418C408.761 268.463 408.557 268.503 408.347 268.537C408.136 268.571 407.935 268.602 407.741 268.631C407.349 268.693 407.014 268.79 406.736 268.92C406.463 269.051 406.253 269.222 406.105 269.432C405.963 269.636 405.892 269.881 405.892 270.165C405.892 270.597 406.045 270.926 406.352 271.153C406.665 271.381 407.06 271.494 407.537 271.494ZM420.79 266.534V274H416.622V260.909H420.585V263.312H420.73C421.02 262.511 421.514 261.884 422.213 261.429C422.912 260.969 423.744 260.739 424.71 260.739C425.631 260.739 426.429 260.946 427.105 261.361C427.787 261.77 428.315 262.344 428.69 263.082C429.071 263.815 429.258 264.673 429.253 265.656V274H425.085V266.474C425.091 265.747 424.906 265.179 424.531 264.77C424.162 264.361 423.648 264.156 422.989 264.156C422.551 264.156 422.165 264.253 421.829 264.446C421.5 264.634 421.244 264.903 421.062 265.256C420.886 265.608 420.795 266.034 420.79 266.534ZM437.935 279.182C436.691 279.182 435.626 279.009 434.739 278.662C433.853 278.315 433.157 277.841 432.651 277.239C432.146 276.636 431.842 275.955 431.739 275.193L435.685 274.972C435.759 275.239 435.896 275.472 436.094 275.67C436.299 275.869 436.563 276.023 436.887 276.131C437.217 276.239 437.603 276.293 438.046 276.293C438.745 276.293 439.322 276.122 439.776 275.781C440.236 275.446 440.467 274.858 440.467 274.017V271.716H440.322C440.157 272.119 439.907 272.48 439.572 272.798C439.236 273.116 438.819 273.366 438.319 273.548C437.824 273.73 437.256 273.821 436.614 273.821C435.66 273.821 434.785 273.599 433.989 273.156C433.199 272.707 432.566 272.014 432.089 271.077C431.617 270.134 431.381 268.92 431.381 267.438C431.381 265.909 431.626 264.651 432.114 263.662C432.603 262.668 433.242 261.932 434.032 261.455C434.827 260.977 435.682 260.739 436.597 260.739C437.285 260.739 437.873 260.858 438.361 261.097C438.856 261.33 439.262 261.631 439.58 262C439.898 262.369 440.14 262.753 440.305 263.151H440.424V260.909H444.574V274.051C444.574 275.159 444.296 276.094 443.739 276.855C443.182 277.616 442.404 278.193 441.404 278.585C440.404 278.983 439.248 279.182 437.935 279.182ZM438.063 270.787C438.569 270.787 439.001 270.653 439.359 270.386C439.717 270.119 439.992 269.736 440.185 269.236C440.378 268.736 440.475 268.136 440.475 267.438C440.475 266.727 440.378 266.116 440.185 265.605C439.998 265.088 439.722 264.69 439.359 264.412C439.001 264.134 438.569 263.994 438.063 263.994C437.546 263.994 437.109 264.136 436.751 264.42C436.393 264.705 436.12 265.105 435.932 265.622C435.751 266.134 435.66 266.739 435.66 267.438C435.66 268.136 435.753 268.736 435.941 269.236C436.128 269.736 436.398 270.119 436.751 270.386C437.109 270.653 437.546 270.787 438.063 270.787ZM453.351 274.247C451.981 274.247 450.8 273.977 449.805 273.438C448.817 272.892 448.055 272.116 447.521 271.111C446.993 270.099 446.729 268.898 446.729 267.506C446.729 266.153 446.996 264.972 447.53 263.96C448.064 262.943 448.817 262.153 449.788 261.591C450.76 261.023 451.905 260.739 453.223 260.739C454.155 260.739 455.007 260.884 455.78 261.173C456.552 261.463 457.22 261.892 457.783 262.46C458.345 263.028 458.783 263.73 459.095 264.565C459.408 265.395 459.564 266.347 459.564 267.42V268.46H448.186V266.04H455.686C455.68 265.597 455.575 265.202 455.371 264.855C455.166 264.509 454.885 264.239 454.527 264.045C454.175 263.847 453.768 263.747 453.308 263.747C452.842 263.747 452.425 263.852 452.055 264.062C451.686 264.267 451.393 264.548 451.177 264.906C450.962 265.259 450.848 265.659 450.837 266.108V268.571C450.837 269.105 450.942 269.574 451.152 269.977C451.362 270.375 451.66 270.685 452.047 270.906C452.433 271.128 452.893 271.239 453.427 271.239C453.797 271.239 454.132 271.187 454.433 271.085C454.734 270.983 454.993 270.832 455.209 270.634C455.425 270.435 455.587 270.19 455.695 269.901L459.521 270.011C459.362 270.869 459.013 271.616 458.473 272.253C457.939 272.884 457.237 273.375 456.368 273.727C455.498 274.074 454.493 274.247 453.351 274.247Z"
		fill="#3B3B3B"/>
	<rect x="233.5" y="229.5" width="279" height="71" rx="13.5" stroke="#3B3B3B" stroke-width="3"/>
	<rect x="347.5" y="1.5" width="192" height="65" rx="13.5" stroke="#3B3B3B" stroke-width="3"/>
	<path
		d="M381.663 29.9091V32.9773H373.405V29.9091H381.663ZM375.135 26.7727H379.303V38.8835C379.303 39.1392 379.342 39.3466 379.422 39.5057C379.507 39.6591 379.629 39.7699 379.788 39.8381C379.947 39.9006 380.138 39.9318 380.359 39.9318C380.518 39.9318 380.686 39.9176 380.862 39.8892C381.044 39.8551 381.18 39.8267 381.271 39.804L381.902 42.8125C381.703 42.8693 381.422 42.9403 381.058 43.0256C380.7 43.1108 380.271 43.1648 379.771 43.1875C378.794 43.233 377.956 43.1193 377.257 42.8466C376.564 42.5682 376.033 42.1364 375.663 41.5511C375.3 40.9659 375.124 40.2301 375.135 39.3438V26.7727ZM388.239 35.5341V43H384.071V25.5455H388.102V32.3125H388.247C388.543 31.5057 389.026 30.875 389.696 30.4205C390.372 29.9659 391.199 29.7386 392.176 29.7386C393.097 29.7386 393.898 29.9432 394.58 30.3523C395.261 30.7557 395.79 31.3267 396.165 32.0653C396.545 32.804 396.733 33.6676 396.727 34.6562V43H392.56V35.4744C392.565 34.7472 392.384 34.179 392.014 33.7699C391.645 33.3608 391.125 33.1562 390.455 33.1562C390.017 33.1562 389.631 33.2528 389.295 33.446C388.966 33.6335 388.707 33.9034 388.52 34.2557C388.338 34.608 388.244 35.0341 388.239 35.5341ZM405.448 43.2472C404.079 43.2472 402.897 42.9773 401.903 42.4375C400.914 41.892 400.153 41.1165 399.619 40.1108C399.09 39.0994 398.826 37.8977 398.826 36.5057C398.826 35.1534 399.093 33.9716 399.627 32.9602C400.161 31.9432 400.914 31.1534 401.886 30.5909C402.857 30.0227 404.002 29.7386 405.32 29.7386C406.252 29.7386 407.104 29.8835 407.877 30.1733C408.65 30.4631 409.317 30.892 409.88 31.4602C410.442 32.0284 410.88 32.7301 411.192 33.5653C411.505 34.3949 411.661 35.3466 411.661 36.4205V37.4602H400.283V35.0398H407.783C407.778 34.5966 407.673 34.2017 407.468 33.8551C407.263 33.5085 406.982 33.2386 406.624 33.0455C406.272 32.8466 405.866 32.7472 405.406 32.7472C404.94 32.7472 404.522 32.8523 404.153 33.0625C403.783 33.267 403.491 33.5483 403.275 33.9062C403.059 34.2585 402.945 34.6591 402.934 35.108V37.571C402.934 38.1051 403.039 38.5739 403.249 38.9773C403.46 39.375 403.758 39.6847 404.144 39.9062C404.531 40.1278 404.991 40.2386 405.525 40.2386C405.894 40.2386 406.229 40.1875 406.531 40.0852C406.832 39.983 407.09 39.8324 407.306 39.6335C407.522 39.4347 407.684 39.1903 407.792 38.9006L411.619 39.0114C411.46 39.8693 411.11 40.6165 410.57 41.2528C410.036 41.8835 409.335 42.375 408.465 42.7273C407.596 43.0739 406.59 43.2472 405.448 43.2472ZM413.79 43V29.9091H417.753V32.3125H417.898C418.17 31.517 418.631 30.8892 419.278 30.429C419.926 29.9688 420.699 29.7386 421.597 29.7386C422.506 29.7386 423.284 29.9716 423.932 30.4375C424.58 30.9034 424.991 31.5284 425.168 32.3125H425.304C425.548 31.5341 426.026 30.9119 426.736 30.446C427.446 29.9744 428.284 29.7386 429.25 29.7386C430.489 29.7386 431.494 30.1364 432.267 30.9318C433.04 31.7216 433.426 32.8068 433.426 34.1875V43H429.259V35.142C429.259 34.4886 429.091 33.9915 428.756 33.6506C428.42 33.304 427.986 33.1307 427.452 33.1307C426.878 33.1307 426.426 33.3182 426.097 33.6932C425.773 34.0625 425.611 34.5597 425.611 35.1847V43H421.605V35.0994C421.605 34.4915 421.44 34.0114 421.111 33.6591C420.781 33.3068 420.347 33.1307 419.807 33.1307C419.443 33.1307 419.122 33.2187 418.844 33.3949C418.565 33.5653 418.347 33.8097 418.188 34.1278C418.034 34.446 417.957 34.821 417.957 35.2528V43H413.79ZM442.128 43.2472C440.759 43.2472 439.577 42.9773 438.582 42.4375C437.594 41.892 436.832 41.1165 436.298 40.1108C435.77 39.0994 435.506 37.8977 435.506 36.5057C435.506 35.1534 435.773 33.9716 436.307 32.9602C436.841 31.9432 437.594 31.1534 438.565 30.5909C439.537 30.0227 440.682 29.7386 442 29.7386C442.932 29.7386 443.784 29.8835 444.557 30.1733C445.33 30.4631 445.997 30.892 446.56 31.4602C447.122 32.0284 447.56 32.7301 447.872 33.5653C448.185 34.3949 448.341 35.3466 448.341 36.4205V37.4602H436.963V35.0398H444.463C444.457 34.5966 444.352 34.2017 444.148 33.8551C443.943 33.5085 443.662 33.2386 443.304 33.0455C442.952 32.8466 442.545 32.7472 442.085 32.7472C441.619 32.7472 441.202 32.8523 440.832 33.0625C440.463 33.267 440.17 33.5483 439.955 33.9062C439.739 34.2585 439.625 34.6591 439.614 35.108V37.571C439.614 38.1051 439.719 38.5739 439.929 38.9773C440.139 39.375 440.438 39.6847 440.824 39.9062C441.21 40.1278 441.67 40.2386 442.205 40.2386C442.574 40.2386 442.909 40.1875 443.21 40.0852C443.511 39.983 443.77 39.8324 443.986 39.6335C444.202 39.4347 444.364 39.1903 444.472 38.9006L448.298 39.0114C448.139 39.8693 447.79 40.6165 447.25 41.2528C446.716 41.8835 446.014 42.375 445.145 42.7273C444.276 43.0739 443.27 43.2472 442.128 43.2472ZM466.313 31.8693H462.052C461.995 31.4318 461.879 31.0369 461.702 30.6847C461.526 30.3324 461.293 30.0312 461.004 29.7812C460.714 29.5312 460.37 29.3409 459.972 29.2102C459.58 29.0739 459.146 29.0057 458.668 29.0057C457.822 29.0057 457.092 29.2131 456.478 29.6278C455.87 30.0426 455.401 30.642 455.072 31.4261C454.748 32.2102 454.586 33.1591 454.586 34.2727C454.586 35.4318 454.751 36.4034 455.08 37.1875C455.415 37.9659 455.884 38.554 456.487 38.9517C457.094 39.3437 457.813 39.5398 458.643 39.5398C459.109 39.5398 459.532 39.4801 459.913 39.3608C460.299 39.2415 460.637 39.0682 460.927 38.8409C461.222 38.608 461.464 38.3267 461.651 37.9972C461.844 37.6619 461.978 37.2841 462.052 36.8636L466.313 36.8892C466.239 37.6619 466.015 38.4233 465.64 39.1733C465.271 39.9233 464.762 40.608 464.114 41.2273C463.467 41.8409 462.677 42.3295 461.745 42.6932C460.819 43.0568 459.756 43.2386 458.558 43.2386C456.978 43.2386 455.563 42.892 454.313 42.1989C453.069 41.5 452.086 40.483 451.364 39.1477C450.643 37.8125 450.282 36.1875 450.282 34.2727C450.282 32.3523 450.648 30.7244 451.381 29.3892C452.114 28.054 453.106 27.0398 454.356 26.3466C455.606 25.6534 457.006 25.3068 458.558 25.3068C459.614 25.3068 460.592 25.4545 461.489 25.75C462.387 26.0398 463.177 26.4659 463.859 27.0284C464.54 27.5852 465.094 28.2699 465.521 29.0824C465.947 29.8949 466.211 30.8239 466.313 31.8693ZM474.838 43.2472C473.463 43.2472 472.281 42.9659 471.293 42.4034C470.31 41.8352 469.551 41.0455 469.017 40.0341C468.489 39.017 468.224 37.8381 468.224 36.4972C468.224 35.1506 468.489 33.9716 469.017 32.9602C469.551 31.9432 470.31 31.1534 471.293 30.5909C472.281 30.0227 473.463 29.7386 474.838 29.7386C476.213 29.7386 477.392 30.0227 478.375 30.5909C479.364 31.1534 480.122 31.9432 480.651 32.9602C481.185 33.9716 481.452 35.1506 481.452 36.4972C481.452 37.8381 481.185 39.017 480.651 40.0341C480.122 41.0455 479.364 41.8352 478.375 42.4034C477.392 42.9659 476.213 43.2472 474.838 43.2472ZM474.864 40.1023C475.364 40.1023 475.787 39.9489 476.134 39.642C476.48 39.3352 476.744 38.9091 476.926 38.3636C477.114 37.8182 477.207 37.1875 477.207 36.4716C477.207 35.7443 477.114 35.108 476.926 34.5625C476.744 34.017 476.48 33.5909 476.134 33.2841C475.787 32.9773 475.364 32.8239 474.864 32.8239C474.347 32.8239 473.909 32.9773 473.551 33.2841C473.199 33.5909 472.929 34.017 472.741 34.5625C472.56 35.108 472.469 35.7443 472.469 36.4716C472.469 37.1875 472.56 37.8182 472.741 38.3636C472.929 38.9091 473.199 39.3352 473.551 39.642C473.909 39.9489 474.347 40.1023 474.864 40.1023ZM487.754 25.5455V43H483.587V25.5455H487.754ZM496.518 43.2472C495.143 43.2472 493.961 42.9659 492.972 42.4034C491.989 41.8352 491.231 41.0455 490.697 40.0341C490.168 39.017 489.904 37.8381 489.904 36.4972C489.904 35.1506 490.168 33.9716 490.697 32.9602C491.231 31.9432 491.989 31.1534 492.972 30.5909C493.961 30.0227 495.143 29.7386 496.518 29.7386C497.893 29.7386 499.072 30.0227 500.055 30.5909C501.043 31.1534 501.802 31.9432 502.33 32.9602C502.864 33.9716 503.131 35.1506 503.131 36.4972C503.131 37.8381 502.864 39.017 502.33 40.0341C501.802 41.0455 501.043 41.8352 500.055 42.4034C499.072 42.9659 497.893 43.2472 496.518 43.2472ZM496.543 40.1023C497.043 40.1023 497.467 39.9489 497.813 39.642C498.16 39.3352 498.424 38.9091 498.606 38.3636C498.793 37.8182 498.887 37.1875 498.887 36.4716C498.887 35.7443 498.793 35.108 498.606 34.5625C498.424 34.017 498.16 33.5909 497.813 33.2841C497.467 32.9773 497.043 32.8239 496.543 32.8239C496.026 32.8239 495.589 32.9773 495.231 33.2841C494.879 33.5909 494.609 34.017 494.421 34.5625C494.239 35.108 494.148 35.7443 494.148 36.4716C494.148 37.1875 494.239 37.8182 494.421 38.3636C494.609 38.9091 494.879 39.3352 495.231 39.642C495.589 39.9489 496.026 40.1023 496.543 40.1023ZM505.266 43V29.9091H509.315V32.2955H509.451C509.69 31.4318 510.079 30.7898 510.619 30.3693C511.158 29.9432 511.786 29.7301 512.502 29.7301C512.695 29.7301 512.894 29.7443 513.099 29.7727C513.303 29.7955 513.494 29.8324 513.67 29.8835V33.5057C513.471 33.4375 513.21 33.3835 512.886 33.3438C512.567 33.304 512.283 33.2841 512.033 33.2841C511.539 33.2841 511.093 33.3949 510.695 33.6165C510.303 33.8324 509.994 34.1364 509.766 34.5284C509.545 34.9148 509.434 35.3693 509.434 35.892V43H505.266Z"
		fill="#3B3B3B"/>
	<rect x="136.5" y="1.5" width="194" height="65" rx="13.5" stroke="#3B3B3B" stroke-width="3"/>
	<path
		d="M196.836 28.9091L192.345 42H187.572L183.089 28.9091H187.478L189.89 37.9261H190.027L192.447 28.9091H196.836ZM198.434 42V28.9091H202.602V42H198.434ZM200.522 27.3835C199.937 27.3835 199.434 27.1903 199.014 26.804C198.593 26.4119 198.383 25.9403 198.383 25.3892C198.383 24.8437 198.593 24.3778 199.014 23.9915C199.434 23.5994 199.937 23.4034 200.522 23.4034C201.113 23.4034 201.616 23.5994 202.031 23.9915C202.451 24.3778 202.662 24.8437 202.662 25.3892C202.662 25.9403 202.451 26.4119 202.031 26.804C201.616 27.1903 201.113 27.3835 200.522 27.3835ZM216.684 32.9062L212.857 33.0085C212.817 32.7358 212.709 32.4943 212.533 32.2841C212.357 32.0682 212.127 31.9006 211.843 31.7812C211.564 31.6562 211.24 31.5938 210.871 31.5938C210.388 31.5938 209.976 31.6903 209.635 31.8835C209.3 32.0767 209.135 32.3381 209.141 32.6676C209.135 32.9233 209.238 33.1449 209.448 33.3324C209.664 33.5199 210.047 33.6705 210.598 33.7841L213.121 34.2614C214.428 34.5114 215.4 34.9261 216.036 35.5057C216.678 36.0852 217.002 36.8523 217.007 37.8068C217.002 38.7045 216.735 39.4858 216.206 40.1506C215.684 40.8153 214.968 41.3324 214.059 41.7017C213.15 42.0653 212.11 42.2472 210.939 42.2472C209.07 42.2472 207.596 41.8636 206.516 41.0966C205.442 40.3239 204.828 39.2898 204.675 37.9943L208.792 37.892C208.882 38.3693 209.118 38.733 209.499 38.983C209.88 39.233 210.365 39.358 210.956 39.358C211.49 39.358 211.925 39.2585 212.26 39.0597C212.596 38.8608 212.766 38.5966 212.772 38.267C212.766 37.9716 212.635 37.7358 212.38 37.5597C212.124 37.3778 211.723 37.2358 211.178 37.1335L208.894 36.6989C207.581 36.4602 206.604 36.0199 205.962 35.3778C205.32 34.7301 205.002 33.9062 205.007 32.9062C205.002 32.0312 205.235 31.2841 205.706 30.6648C206.178 30.0398 206.848 29.5625 207.718 29.233C208.587 28.9034 209.613 28.7386 210.794 28.7386C212.567 28.7386 213.965 29.1108 214.988 29.8551C216.01 30.5937 216.576 31.6108 216.684 32.9062ZM219.059 42V28.9091H223.227V42H219.059ZM221.147 27.3835C220.562 27.3835 220.059 27.1903 219.639 26.804C219.218 26.4119 219.008 25.9403 219.008 25.3892C219.008 24.8437 219.218 24.3778 219.639 23.9915C220.059 23.5994 220.562 23.4034 221.147 23.4034C221.738 23.4034 222.241 23.5994 222.656 23.9915C223.076 24.3778 223.287 24.8437 223.287 25.3892C223.287 25.9403 223.076 26.4119 222.656 26.804C222.241 27.1903 221.738 27.3835 221.147 27.3835ZM225.88 42V24.5455H230.047V31.1506H230.132C230.303 30.7528 230.544 30.3693 230.857 30C231.175 29.6307 231.578 29.3295 232.067 29.0966C232.561 28.858 233.152 28.7386 233.84 28.7386C234.749 28.7386 235.598 28.9773 236.388 29.4545C237.184 29.9318 237.826 30.6676 238.314 31.6619C238.803 32.6562 239.047 33.9233 239.047 35.4631C239.047 36.946 238.811 38.1875 238.34 39.1875C237.874 40.1875 237.243 40.9375 236.448 41.4375C235.658 41.9375 234.78 42.1875 233.814 42.1875C233.155 42.1875 232.584 42.0795 232.101 41.8636C231.618 41.6477 231.212 41.3636 230.882 41.0114C230.559 40.6591 230.309 40.2812 230.132 39.8778H230.005V42H225.88ZM229.962 35.4545C229.962 36.1591 230.056 36.7727 230.243 37.2955C230.436 37.8182 230.712 38.2244 231.07 38.5142C231.434 38.7983 231.868 38.9403 232.374 38.9403C232.885 38.9403 233.32 38.7983 233.678 38.5142C234.036 38.2244 234.306 37.8182 234.488 37.2955C234.675 36.7727 234.769 36.1591 234.769 35.4545C234.769 34.75 234.675 34.1392 234.488 33.6222C234.306 33.1051 234.036 32.7045 233.678 32.4205C233.326 32.1364 232.891 31.9943 232.374 31.9943C231.863 31.9943 231.428 32.1335 231.07 32.4119C230.712 32.6903 230.436 33.0881 230.243 33.6051C230.056 34.1222 229.962 34.7386 229.962 35.4545ZM241.231 42V28.9091H245.399V42H241.231ZM243.319 27.3835C242.734 27.3835 242.231 27.1903 241.811 26.804C241.39 26.4119 241.18 25.9403 241.18 25.3892C241.18 24.8437 241.39 24.3778 241.811 23.9915C242.231 23.5994 242.734 23.4034 243.319 23.4034C243.91 23.4034 244.413 23.5994 244.828 23.9915C245.248 24.3778 245.458 24.8437 245.458 25.3892C245.458 25.9403 245.248 26.4119 244.828 26.804C244.413 27.1903 243.91 27.3835 243.319 27.3835ZM252.219 24.5455V42H248.051V24.5455H252.219ZM254.872 42V28.9091H259.039V42H254.872ZM256.96 27.3835C256.375 27.3835 255.872 27.1903 255.451 26.804C255.031 26.4119 254.821 25.9403 254.821 25.3892C254.821 24.8437 255.031 24.3778 255.451 23.9915C255.872 23.5994 256.375 23.4034 256.96 23.4034C257.551 23.4034 258.054 23.5994 258.468 23.9915C258.889 24.3778 259.099 24.8437 259.099 25.3892C259.099 25.9403 258.889 26.4119 258.468 26.804C258.054 27.1903 257.551 27.3835 256.96 27.3835ZM269.081 28.9091V31.9773H260.823V28.9091H269.081ZM262.553 25.7727H266.721V37.8835C266.721 38.1392 266.76 38.3466 266.84 38.5057C266.925 38.6591 267.047 38.7699 267.206 38.8381C267.365 38.9006 267.556 38.9318 267.777 38.9318C267.936 38.9318 268.104 38.9176 268.28 38.8892C268.462 38.8551 268.598 38.8267 268.689 38.804L269.32 41.8125C269.121 41.8693 268.84 41.9403 268.476 42.0256C268.118 42.1108 267.689 42.1648 267.189 42.1875C266.212 42.233 265.374 42.1193 264.675 41.8466C263.982 41.5682 263.451 41.1364 263.081 40.5511C262.718 39.9659 262.542 39.2301 262.553 38.3438V25.7727ZM273.756 46.9091C273.256 46.9091 272.784 46.8693 272.341 46.7898C271.898 46.7159 271.517 46.6165 271.199 46.4915L272.12 43.4659C272.529 43.6023 272.898 43.6818 273.228 43.7045C273.563 43.7273 273.85 43.6733 274.088 43.5426C274.333 43.4176 274.52 43.1932 274.651 42.8693L274.813 42.4773L270.159 28.9091H274.523L276.935 38.25H277.071L279.517 28.9091H283.907L278.972 43.2528C278.733 43.9688 278.395 44.5994 277.958 45.1449C277.526 45.696 276.966 46.1278 276.279 46.4403C275.597 46.7528 274.756 46.9091 273.756 46.9091Z"
		fill="#3B3B3B"/>
	<rect x="1.5" y="1.5" width="117" height="65" rx="13.5" stroke="#3B3B3B" stroke-width="3"/>
	<path
		d="M35.0852 29.7091V32.7773H26.8267V29.7091H35.0852ZM28.5568 26.5727H32.7244V38.6835C32.7244 38.9392 32.7642 39.1466 32.8438 39.3057C32.929 39.4591 33.0511 39.5699 33.2102 39.6381C33.3693 39.7006 33.5597 39.7318 33.7812 39.7318C33.9403 39.7318 34.108 39.7176 34.2841 39.6892C34.4659 39.6551 34.6023 39.6267 34.6932 39.604L35.3239 42.6125C35.125 42.6693 34.8438 42.7403 34.4801 42.8256C34.1222 42.9108 33.6932 42.9648 33.1932 42.9875C32.2159 43.0329 31.3778 42.9193 30.679 42.6466C29.9858 42.3682 29.4545 41.9364 29.0852 41.3511C28.7216 40.7659 28.5455 40.0301 28.5568 39.1437V26.5727ZM43.1818 43.0471C41.8068 43.0471 40.625 42.7659 39.6364 42.2034C38.6534 41.6352 37.8949 40.8454 37.3608 39.8341C36.8324 38.817 36.5682 37.6381 36.5682 36.2971C36.5682 34.9506 36.8324 33.7716 37.3608 32.7602C37.8949 31.7432 38.6534 30.9534 39.6364 30.3909C40.625 29.8227 41.8068 29.5386 43.1818 29.5386C44.5568 29.5386 45.7358 29.8227 46.7188 30.3909C47.7074 30.9534 48.4659 31.7432 48.9943 32.7602C49.5284 33.7716 49.7955 34.9506 49.7955 36.2971C49.7955 37.6381 49.5284 38.817 48.9943 39.8341C48.4659 40.8454 47.7074 41.6352 46.7188 42.2034C45.7358 42.7659 44.5568 43.0471 43.1818 43.0471ZM43.2074 39.9023C43.7074 39.9023 44.1307 39.7489 44.4773 39.442C44.8239 39.1352 45.0881 38.7091 45.2699 38.1636C45.4574 37.6182 45.5511 36.9875 45.5511 36.2716C45.5511 35.5443 45.4574 34.9079 45.2699 34.3625C45.0881 33.817 44.8239 33.3909 44.4773 33.0841C44.1307 32.7773 43.7074 32.6239 43.2074 32.6239C42.6903 32.6239 42.2528 32.7773 41.8949 33.0841C41.5426 33.3909 41.2727 33.817 41.0852 34.3625C40.9034 34.9079 40.8125 35.5443 40.8125 36.2716C40.8125 36.9875 40.9034 37.6182 41.0852 38.1636C41.2727 38.7091 41.5426 39.1352 41.8949 39.442C42.2528 39.7489 42.6903 39.9023 43.2074 39.9023ZM56.7116 42.9875C55.7457 42.9875 54.8679 42.7375 54.0781 42.2375C53.2884 41.7375 52.6577 40.9875 52.1861 39.9875C51.7145 38.9875 51.4787 37.746 51.4787 36.2631C51.4787 34.7233 51.723 33.4562 52.2116 32.4619C52.7003 31.4676 53.3395 30.7318 54.1293 30.2545C54.9247 29.7773 55.7798 29.5386 56.6946 29.5386C57.3821 29.5386 57.9702 29.6579 58.4588 29.8966C58.9474 30.1295 59.3509 30.4307 59.669 30.8C59.9872 31.1693 60.2287 31.5528 60.3935 31.9506H60.4787V25.3454H64.6463V42.8H60.5213V40.6778H60.3935C60.2173 41.0812 59.9673 41.4591 59.6435 41.8114C59.3196 42.1636 58.9134 42.4477 58.4247 42.6636C57.9418 42.8795 57.3707 42.9875 56.7116 42.9875ZM58.1605 39.7403C58.6662 39.7403 59.098 39.5983 59.456 39.3142C59.8139 39.0244 60.0895 38.6182 60.2827 38.0954C60.4759 37.5727 60.5724 36.9591 60.5724 36.2545C60.5724 35.5386 60.4759 34.9221 60.2827 34.4051C60.0952 33.8881 59.8196 33.4903 59.456 33.2119C59.098 32.9335 58.6662 32.7943 58.1605 32.7943C57.6435 32.7943 57.206 32.9364 56.848 33.2204C56.4901 33.5045 56.2173 33.9051 56.0298 34.4221C55.848 34.9392 55.7571 35.55 55.7571 36.2545C55.7571 36.9591 55.8509 37.5727 56.0384 38.0954C56.2259 38.6182 56.4957 39.0244 56.848 39.3142C57.206 39.5983 57.6435 39.7403 58.1605 39.7403ZM73.3928 43.0471C72.0178 43.0471 70.8359 42.7659 69.8473 42.2034C68.8643 41.6352 68.1058 40.8454 67.5717 39.8341C67.0433 38.817 66.7791 37.6381 66.7791 36.2971C66.7791 34.9506 67.0433 33.7716 67.5717 32.7602C68.1058 31.7432 68.8643 30.9534 69.8473 30.3909C70.8359 29.8227 72.0178 29.5386 73.3928 29.5386C74.7678 29.5386 75.9467 29.8227 76.9297 30.3909C77.9183 30.9534 78.6768 31.7432 79.2053 32.7602C79.7393 33.7716 80.0064 34.9506 80.0064 36.2971C80.0064 37.6381 79.7393 38.817 79.2053 39.8341C78.6768 40.8454 77.9183 41.6352 76.9297 42.2034C75.9467 42.7659 74.7678 43.0471 73.3928 43.0471ZM73.4183 39.9023C73.9183 39.9023 74.3416 39.7489 74.6882 39.442C75.0348 39.1352 75.299 38.7091 75.4808 38.1636C75.6683 37.6182 75.7621 36.9875 75.7621 36.2716C75.7621 35.5443 75.6683 34.9079 75.4808 34.3625C75.299 33.817 75.0348 33.3909 74.6882 33.0841C74.3416 32.7773 73.9183 32.6239 73.4183 32.6239C72.9013 32.6239 72.4638 32.7773 72.1058 33.0841C71.7536 33.3909 71.4837 33.817 71.2962 34.3625C71.1143 34.9079 71.0234 35.5443 71.0234 36.2716C71.0234 36.9875 71.1143 37.6182 71.2962 38.1636C71.4837 38.7091 71.7536 39.1352 72.1058 39.442C72.4638 39.7489 72.9013 39.9023 73.4183 39.9023ZM93.5703 33.7062L89.7436 33.8085C89.7038 33.5358 89.5959 33.2943 89.4197 33.0841C89.2436 32.8682 89.0135 32.7006 88.7294 32.5812C88.451 32.4562 88.1271 32.3937 87.7578 32.3937C87.2749 32.3937 86.8629 32.4903 86.522 32.6835C86.1868 32.8767 86.022 33.1381 86.0277 33.4676C86.022 33.7233 86.1243 33.9449 86.3345 34.1324C86.5504 34.3199 86.9339 34.4704 87.4851 34.5841L90.0078 35.0614C91.3146 35.3114 92.2862 35.7261 92.9226 36.3057C93.5646 36.8852 93.8885 37.6523 93.8942 38.6068C93.8885 39.5045 93.6214 40.2858 93.093 40.9506C92.5703 41.6153 91.8544 42.1324 90.9453 42.5017C90.0362 42.8653 88.9964 43.0471 87.826 43.0471C85.9567 43.0471 84.4822 42.6636 83.4027 41.8966C82.3288 41.1239 81.7152 40.0898 81.5618 38.7943L85.6783 38.692C85.7692 39.1693 86.005 39.5329 86.3857 39.7829C86.7663 40.0329 87.2521 40.1579 87.843 40.1579C88.3771 40.1579 88.8118 40.0585 89.147 39.8596C89.4822 39.6608 89.6527 39.3966 89.6584 39.067C89.6527 38.7716 89.522 38.5358 89.2663 38.3596C89.0107 38.1778 88.6101 38.0358 88.0646 37.9335L85.7805 37.4989C84.468 37.2602 83.4908 36.8199 82.8487 36.1778C82.2067 35.5301 81.8885 34.7062 81.8942 33.7062C81.8885 32.8312 82.1214 32.0841 82.593 31.4648C83.0646 30.8398 83.7351 30.3625 84.6044 30.0329C85.4737 29.7034 86.4993 29.5386 87.6811 29.5386C89.4538 29.5386 90.8516 29.9108 91.8743 30.6551C92.897 31.3937 93.4624 32.4108 93.5703 33.7062Z"
		fill="#3B3B3B"/>
	<rect x="216" y="187" width="111" height="31" fill="white"/>
	<path
		d="M228.617 197.31V194.455H240.911V197.31H236.501V209H233.035V197.31H228.617ZM246.138 209.206C244.993 209.206 244.008 208.972 243.184 208.503C242.365 208.029 241.733 207.371 241.288 206.528C240.847 205.681 240.627 204.698 240.627 203.581C240.627 202.459 240.847 201.476 241.288 200.634C241.733 199.786 242.365 199.128 243.184 198.659C244.008 198.186 244.993 197.949 246.138 197.949C247.284 197.949 248.267 198.186 249.086 198.659C249.91 199.128 250.542 199.786 250.982 200.634C251.427 201.476 251.65 202.459 251.65 203.581C251.65 204.698 251.427 205.681 250.982 206.528C250.542 207.371 249.91 208.029 249.086 208.503C248.267 208.972 247.284 209.206 246.138 209.206ZM246.16 206.585C246.576 206.585 246.929 206.457 247.218 206.202C247.507 205.946 247.727 205.591 247.879 205.136C248.035 204.682 248.113 204.156 248.113 203.56C248.113 202.954 248.035 202.423 247.879 201.969C247.727 201.514 247.507 201.159 247.218 200.903C246.929 200.648 246.576 200.52 246.16 200.52C245.729 200.52 245.364 200.648 245.066 200.903C244.772 201.159 244.548 201.514 244.391 201.969C244.24 202.423 244.164 202.954 244.164 203.56C244.164 204.156 244.24 204.682 244.391 205.136C244.548 205.591 244.772 205.946 245.066 206.202C245.364 206.457 245.729 206.585 246.16 206.585ZM257.413 209.156C256.608 209.156 255.877 208.948 255.219 208.531C254.561 208.115 254.035 207.49 253.642 206.656C253.249 205.823 253.053 204.788 253.053 203.553C253.053 202.269 253.256 201.214 253.663 200.385C254.071 199.556 254.603 198.943 255.261 198.545C255.924 198.148 256.637 197.949 257.399 197.949C257.972 197.949 258.462 198.048 258.869 198.247C259.277 198.441 259.613 198.692 259.878 199C260.143 199.308 260.344 199.627 260.482 199.959H260.553V194.455H264.026V209H260.588V207.232H260.482C260.335 207.568 260.126 207.883 259.857 208.176C259.587 208.47 259.248 208.706 258.841 208.886C258.438 209.066 257.963 209.156 257.413 209.156ZM258.621 206.45C259.042 206.45 259.402 206.332 259.7 206.095C259.999 205.854 260.228 205.515 260.389 205.08C260.55 204.644 260.631 204.133 260.631 203.545C260.631 202.949 260.55 202.435 260.389 202.004C260.233 201.573 260.003 201.242 259.7 201.01C259.402 200.778 259.042 200.662 258.621 200.662C258.19 200.662 257.825 200.78 257.527 201.017C257.229 201.254 257.001 201.588 256.845 202.018C256.694 202.449 256.618 202.958 256.618 203.545C256.618 204.133 256.696 204.644 256.852 205.08C257.009 205.515 257.233 205.854 257.527 206.095C257.825 206.332 258.19 206.45 258.621 206.45ZM271.314 209.206C270.168 209.206 269.184 208.972 268.36 208.503C267.541 208.029 266.908 207.371 266.463 206.528C266.023 205.681 265.803 204.698 265.803 203.581C265.803 202.459 266.023 201.476 266.463 200.634C266.908 199.786 267.541 199.128 268.36 198.659C269.184 198.186 270.168 197.949 271.314 197.949C272.46 197.949 273.443 198.186 274.262 198.659C275.086 199.128 275.718 199.786 276.158 200.634C276.603 201.476 276.826 202.459 276.826 203.581C276.826 204.698 276.603 205.681 276.158 206.528C275.718 207.371 275.086 208.029 274.262 208.503C273.443 208.972 272.46 209.206 271.314 209.206ZM271.336 206.585C271.752 206.585 272.105 206.457 272.394 206.202C272.683 205.946 272.903 205.591 273.054 205.136C273.211 204.682 273.289 204.156 273.289 203.56C273.289 202.954 273.211 202.423 273.054 201.969C272.903 201.514 272.683 201.159 272.394 200.903C272.105 200.648 271.752 200.52 271.336 200.52C270.905 200.52 270.54 200.648 270.242 200.903C269.948 201.159 269.723 201.514 269.567 201.969C269.416 202.423 269.34 202.954 269.34 203.56C269.34 204.156 269.416 204.682 269.567 205.136C269.723 205.591 269.948 205.946 270.242 206.202C270.54 206.457 270.905 206.585 271.336 206.585ZM278.605 209V194.455H282.12V206.145H288.172V209H278.605ZM289.991 209V198.091H293.464V209H289.991ZM291.732 196.82C291.244 196.82 290.825 196.659 290.474 196.337C290.124 196.01 289.949 195.617 289.949 195.158C289.949 194.703 290.124 194.315 290.474 193.993C290.825 193.666 291.244 193.503 291.732 193.503C292.224 193.503 292.643 193.666 292.989 193.993C293.339 194.315 293.514 194.703 293.514 195.158C293.514 195.617 293.339 196.01 292.989 196.337C292.643 196.659 292.224 196.82 291.732 196.82ZM305.199 201.422L302.01 201.507C301.977 201.28 301.887 201.079 301.74 200.903C301.594 200.723 301.402 200.584 301.165 200.484C300.933 200.38 300.663 200.328 300.355 200.328C299.953 200.328 299.61 200.409 299.326 200.57C299.046 200.731 298.909 200.948 298.914 201.223C298.909 201.436 298.994 201.621 299.169 201.777C299.349 201.933 299.669 202.059 300.128 202.153L302.23 202.551C303.319 202.759 304.129 203.105 304.659 203.588C305.194 204.071 305.464 204.71 305.469 205.506C305.464 206.254 305.242 206.905 304.801 207.459C304.366 208.013 303.769 208.444 303.012 208.751C302.254 209.054 301.388 209.206 300.412 209.206C298.855 209.206 297.626 208.886 296.726 208.247C295.831 207.603 295.32 206.741 295.192 205.662L298.623 205.577C298.698 205.974 298.895 206.277 299.212 206.486C299.529 206.694 299.934 206.798 300.426 206.798C300.872 206.798 301.234 206.715 301.513 206.55C301.792 206.384 301.935 206.164 301.939 205.889C301.935 205.643 301.826 205.446 301.613 205.3C301.4 205.148 301.066 205.03 300.611 204.945L298.708 204.582C297.614 204.384 296.8 204.017 296.265 203.482C295.73 202.942 295.464 202.255 295.469 201.422C295.464 200.693 295.658 200.07 296.051 199.554C296.444 199.033 297.003 198.635 297.728 198.361C298.452 198.086 299.307 197.949 300.292 197.949C301.769 197.949 302.934 198.259 303.786 198.879C304.638 199.495 305.109 200.342 305.199 201.422ZM313.337 198.091V200.648H306.455V198.091H313.337ZM307.896 195.477H311.369V205.57C311.369 205.783 311.402 205.955 311.469 206.088C311.54 206.216 311.642 206.308 311.774 206.365C311.907 206.417 312.065 206.443 312.25 206.443C312.383 206.443 312.522 206.431 312.669 206.408C312.821 206.379 312.934 206.356 313.01 206.337L313.536 208.844C313.37 208.891 313.135 208.95 312.832 209.021C312.534 209.092 312.177 209.137 311.76 209.156C310.946 209.194 310.247 209.099 309.665 208.872C309.087 208.64 308.644 208.28 308.337 207.793C308.034 207.305 307.887 206.692 307.896 205.953V195.477Z"
		fill="#2269D5"/>
	<rect x="256" y="441" width="48" height="31" fill="white"/>
	<path
		d="M270.89 463.156C270.085 463.156 269.353 462.948 268.695 462.531C268.037 462.115 267.512 461.49 267.119 460.656C266.726 459.823 266.529 458.788 266.529 457.553C266.529 456.269 266.733 455.214 267.14 454.385C267.547 453.556 268.08 452.943 268.738 452.545C269.401 452.148 270.113 451.949 270.876 451.949C271.449 451.949 271.939 452.048 272.346 452.247C272.753 452.441 273.089 452.692 273.354 453C273.62 453.308 273.821 453.627 273.958 453.959H274.029V448.455H277.502V463H274.065V461.232H273.958C273.811 461.568 273.603 461.883 273.333 462.176C273.063 462.47 272.725 462.706 272.317 462.886C271.915 463.066 271.439 463.156 270.89 463.156ZM272.097 460.45C272.519 460.45 272.879 460.332 273.177 460.095C273.475 459.854 273.705 459.515 273.866 459.08C274.027 458.644 274.107 458.133 274.107 457.545C274.107 456.949 274.027 456.435 273.866 456.004C273.71 455.573 273.48 455.242 273.177 455.01C272.879 454.778 272.519 454.662 272.097 454.662C271.666 454.662 271.302 454.78 271.004 455.017C270.705 455.254 270.478 455.588 270.322 456.018C270.17 456.449 270.094 456.958 270.094 457.545C270.094 458.133 270.173 458.644 270.329 459.08C270.485 459.515 270.71 459.854 271.004 460.095C271.302 460.332 271.666 460.45 272.097 460.45ZM279.699 463V452.091H283.172V463H279.699ZM281.439 450.82C280.951 450.82 280.532 450.659 280.181 450.337C279.831 450.01 279.656 449.617 279.656 449.158C279.656 448.703 279.831 448.315 280.181 447.993C280.532 447.666 280.951 447.503 281.439 447.503C281.931 447.503 282.35 447.666 282.696 447.993C283.046 448.315 283.221 448.703 283.221 449.158C283.221 449.617 283.046 450.01 282.696 450.337C282.35 450.659 281.931 450.82 281.439 450.82ZM295.964 452.091L292.222 463H288.244L284.509 452.091H288.166L290.176 459.605H290.29L292.307 452.091H295.964Z"
		fill="#B7595B"/>
	<rect x="122" y="464" width="48" height="31" fill="white"/>
	<path
		d="M145.94 481.291V475.091H149.406V486H146.096V483.969H145.983C145.741 484.636 145.329 485.167 144.747 485.56C144.169 485.948 143.471 486.142 142.652 486.142C141.908 486.142 141.255 485.972 140.691 485.631C140.128 485.29 139.69 484.814 139.377 484.203C139.065 483.588 138.906 482.868 138.902 482.044V475.091H142.375V481.362C142.379 481.954 142.536 482.42 142.843 482.761C143.151 483.102 143.57 483.273 144.1 483.273C144.446 483.273 144.756 483.197 145.031 483.045C145.31 482.889 145.53 482.664 145.691 482.371C145.857 482.072 145.94 481.713 145.94 481.291ZM155.089 471.455V486H151.616V471.455H155.089Z"
		fill="#B7595B"/>
	<path
		d="M269.939 169.061C270.525 169.646 271.475 169.646 272.061 169.061L281.607 159.515C282.192 158.929 282.192 157.979 281.607 157.393C281.021 156.808 280.071 156.808 279.485 157.393L271 165.879L262.515 157.393C261.929 156.808 260.979 156.808 260.393 157.393C259.808 157.979 259.808 158.929 260.393 159.515L269.939 169.061ZM269.5 87V89.025H272.5V87H269.5ZM269.5 93.075V97.125H272.5V93.075H269.5ZM269.5 101.175V105.225H272.5V101.175H269.5ZM269.5 109.275V113.325H272.5V109.275H269.5ZM269.5 117.375V121.425H272.5V117.375H269.5ZM269.5 125.475V129.525H272.5V125.475H269.5ZM269.5 133.575V137.625H272.5V133.575H269.5ZM269.5 141.675V145.725H272.5V141.675H269.5ZM269.5 149.775V153.825H272.5V149.775H269.5ZM269.5 157.875V161.925H272.5V157.875H269.5ZM269.5 165.975V168H272.5V165.975H269.5ZM269.939 169.061C270.525 169.646 271.475 169.646 272.061 169.061L281.607 159.515C282.192 158.929 282.192 157.979 281.607 157.393C281.021 156.808 280.071 156.808 279.485 157.393L271 165.879L262.515 157.393C261.929 156.808 260.979 156.808 260.393 157.393C259.808 157.979 259.808 158.929 260.393 159.515L269.939 169.061ZM269.5 87V89.025H272.5V87H269.5ZM269.5 93.075V97.125H272.5V93.075H269.5ZM269.5 101.175V105.225H272.5V101.175H269.5ZM269.5 109.275V113.325H272.5V109.275H269.5ZM269.5 117.375V121.425H272.5V117.375H269.5ZM269.5 125.475V129.525H272.5V125.475H269.5ZM269.5 133.575V137.625H272.5V133.575H269.5ZM269.5 141.675V145.725H272.5V141.675H269.5ZM269.5 149.775V153.825H272.5V149.775H269.5ZM269.5 157.875V161.925H272.5V157.875H269.5ZM269.5 165.975V168H272.5V165.975H269.5Z"
		fill="#2269D5"/>
	<path
		d="M270.939 418.061C271.525 418.646 272.475 418.646 273.061 418.061L282.607 408.515C283.192 407.929 283.192 406.979 282.607 406.393C282.021 405.808 281.071 405.808 280.485 406.393L272 414.879L263.515 406.393C262.929 405.808 261.979 405.808 261.393 406.393C260.808 406.979 260.808 407.929 261.393 408.515L270.939 418.061ZM270.5 358V360.107H273.5V358H270.5ZM270.5 364.321V368.536H273.5V364.321H270.5ZM270.5 372.75V376.964H273.5V372.75H270.5ZM270.5 381.179V385.393H273.5V381.179H270.5ZM270.5 389.607V393.821H273.5V389.607H270.5ZM270.5 398.036V402.25H273.5V398.036H270.5ZM270.5 406.464V410.679H273.5V406.464H270.5ZM270.5 414.893V417H273.5V414.893H270.5ZM270.939 418.061C271.525 418.646 272.475 418.646 273.061 418.061L282.607 408.515C283.192 407.929 283.192 406.979 282.607 406.393C282.021 405.808 281.071 405.808 280.485 406.393L272 414.879L263.515 406.393C262.929 405.808 261.979 405.808 261.393 406.393C260.808 406.979 260.808 407.929 261.393 408.515L270.939 418.061ZM270.5 358V360.107H273.5V358H270.5ZM270.5 364.321V368.536H273.5V364.321H270.5ZM270.5 372.75V376.964H273.5V372.75H270.5ZM270.5 381.179V385.393H273.5V381.179H270.5ZM270.5 389.607V393.821H273.5V389.607H270.5ZM270.5 398.036V402.25H273.5V398.036H270.5ZM270.5 406.464V410.679H273.5V406.464H270.5ZM270.5 414.893V417H273.5V414.893H270.5Z"
		fill="#B7595B"/>
	<!--arrows	-->
	<path
		d="M84.2993 229.326C85.0318 229.713 85.9393 229.433 86.3263 228.701L92.6324 216.764C93.0194 216.032 92.7393 215.124 92.0068 214.737C91.2743 214.35 90.3668 214.63 89.9798 215.363L84.3744 225.973L73.7641 220.368C73.0316 219.981 72.1241 220.261 71.7371 220.993C71.3501 221.726 71.6302 222.633 72.3627 223.02L84.2993 229.326ZM33.5667 66.4424L83.5667 228.442L86.4333 227.558L36.4333 65.5576L33.5667 66.4424Z"
		fill="#3B3B3B"/>
	<path
		d="M125.744 228.82C126.197 229.514 127.127 229.709 127.82 229.256L139.123 221.874C139.817 221.421 140.012 220.492 139.559 219.798C139.106 219.105 138.177 218.909 137.483 219.362L127.436 225.924L120.874 215.877C120.421 215.183 119.492 214.988 118.798 215.441C118.105 215.894 117.909 216.823 118.362 217.517L125.744 228.82ZM159.532 65.6919L125.532 227.692L128.468 228.308L162.468 66.3081L159.532 65.6919Z"
		fill="#3B3B3B"/>
	<path
		d="M457.811 511.914C458.316 512.571 459.258 512.694 459.914 512.189L470.616 503.96C471.273 503.455 471.396 502.513 470.891 501.857C470.386 501.2 469.444 501.077 468.788 501.582L459.275 508.897L451.96 499.384C451.455 498.727 450.513 498.604 449.857 499.109C449.2 499.614 449.077 500.556 449.582 501.212L457.811 511.914ZM515.513 66.8057L457.513 510.806L460.487 511.194L518.487 67.1943L515.513 66.8057Z"
		fill="#3B3B3B"/>
	<path
		d="M88.1102 500.208C88.7771 500.699 89.7162 500.557 90.2076 499.89L98.2158 489.022C98.7072 488.355 98.5649 487.416 97.898 486.924C97.2311 486.433 96.292 486.575 95.8006 487.242L88.6822 496.903L79.0215 489.784C78.3546 489.293 77.4156 489.435 76.9242 490.102C76.4327 490.769 76.575 491.708 77.2419 492.199L88.1102 500.208ZM57.5169 301.225L87.5169 499.225L90.4831 498.775L60.4831 300.775L57.5169 301.225Z"
		fill="#3B3B3B"/>
	<path
		d="M187.576 499.471C187.836 500.258 188.685 500.684 189.471 500.424L202.287 496.181C203.074 495.92 203.5 495.072 203.24 494.285C202.979 493.499 202.131 493.072 201.344 493.333L189.952 497.105L186.181 485.713C185.92 484.926 185.072 484.5 184.285 484.76C183.499 485.021 183.072 485.869 183.333 486.656L187.576 499.471ZM287.66 299.326L187.66 498.326L190.34 499.674L290.34 300.674L287.66 299.326Z"
		fill="#3B3B3B"/>
</svg>
